Patient4_TMGait_0pt7_01_right_28_EMG.mot
version=1
nRows=16
nColumns=33
inDegrees=no
endheader
time	1LAddLong	2LGlutMax	3LGlutMed	4LIliopsoas	5LSemiMemb	6LBicFemLong	7LRecFem	8LVastMed	9LVastLat	10LGasMed	11LTibAnt	12lTibPost	13LPeroneusLong	14LSol	15LExtDigLong	16LFlexDigLong	17RAddLong	18RGlutMax	19RGlutMed	20RIliopsoas	21RSemiMemb	22RBicFemLong	23RRecFem	24RVastMed	25RVastLat	26RGasMed	27RTibAnt	28RTibPost	29RPeroneusLong	30RSol	31RExtDigLong	32RFlexDigLong
32.515	-0.035706	0.066223	-0.083008	0.001984	-0.1207	-0.40329	0.050659	0.015564	0.15243	0.003967	-0.011597	-0.005646	0.087585	0.041809	-0.010376	0.001221	0.034332	-0.04837	0.4599	-0.086823	0.05127	-0.082703	-0.36941	0.022583	0.005798	-0.005493	0.37308	-0.001373	0.33066	-0.049133	-0.00412	-0.015106
32.516	0.003357	0.095825	-0.18448	-0.005493	-0.19684	-0.37766	-0.039063	0.015106	0.21606	0.000763	-0.049591	0.001831	0.034485	0.039215	-0.008698	-0.014648	0.038147	-0.054016	0.16815	-0.01358	0.044861	-0.081482	-0.32623	-0.014191	-0.000763	0.002136	0.3273	-0.000763	0.91888	0.005035	-0.00061	-0.014343
32.517	-0.023804	0.067444	-0.17242	-0.007629	-0.11704	-0.39581	-0.13977	0.007935	0.26367	0.011292	0.019989	0.008545	-0.024109	0.027924	-0.013733	-0.006256	0.042877	-0.054779	0.054474	-0.001373	0.037994	-0.079346	-0.27817	-0.00412	0.000305	-0.002594	0.57449	-0.002441	-0.11856	-0.008698	-0.003967	-0.015564
32.518	-0.01297	0.010529	-0.044403	-0.001984	0.048065	-0.36728	-0.20538	-0.006714	0.1738	-0.00061	0.066223	0.002594	0.067444	0.028076	-0.013275	0.002289	0.001831	-0.074921	0.11566	0.019684	0.049438	-0.014496	-0.29053	0.00061	0.000153	0	0.14511	-0.000916	-0.63858	-0.04715	-0.003662	-0.016785
32.519	0.051422	-0.020905	-0.093384	0.001221	0.20859	-0.21301	-0.16892	-0.020447	0.11078	-0.014801	0.066071	0.005035	0.18295	0.034485	-0.023651	0.021362	-0.032806	-0.071259	0.19226	0.041351	0.084229	0.075989	-0.31143	0.01709	0.000305	-0.001526	-0.54153	0.007782	-0.3624	0.01236	-0.002289	-0.02182
32.52	0.015869	-0.034332	-0.17868	-0.01236	0.15961	-0.1532	-0.1265	-0.016327	-0.078735	-0.023193	-0.035858	0.001831	0.22934	0.050049	0.003662	0.002441	-0.044403	-0.095215	0.19577	0.010834	0.084839	0.057831	-0.27176	0.015411	-0.005951	0.00351	-0.80429	-0.00351	0.017853	0.010529	-0.001373	-0.018616
32.521	0.035706	0.006256	-0.026398	0.006104	0.064087	-0.019989	-0.058289	-0.025635	-0.31311	-0.006104	-0.013733	0.004883	0.098114	0.043182	0.021667	-0.006256	-0.054169	-0.13809	0.16922	-0.009155	0.070038	0.078735	-0.28046	0.020905	-0.011749	-0.003052	-0.58853	-0.004883	0.26199	0.031738	-0.000916	-0.031128
32.522	0.002441	0.036163	0.081329	0.023804	-0.007477	-0.000916	-0.019226	-0.009918	-0.28198	0.012512	0.000458	0.011902	-0.14069	0.01236	-0.007629	0.007172	-0.046234	-0.13367	0.17288	0.00946	0.072632	0.11887	-0.27283	0.025787	-0.00061	-0.005341	-0.37567	-0.003662	0.19775	0.029449	-0.004425	-0.016479
32.523	-0.028381	0.040588	0.075836	0.003357	-0.023956	0.01297	-0.017548	-0.002441	-0.15869	0.010223	-0.007782	0.006866	-0.094147	-0.008545	-0.020752	-0.007782	-0.024109	-0.10559	0.12802	0.045471	0.090332	0.14755	-0.3154	0.065613	0.006256	-0.022583	-0.45853	-0.00351	0.053253	0.082092	0.000916	-0.024567
32.524	-0.025024	0.10162	-0.021515	-0.004578	0.042267	0.15869	0.009613	0.016174	-0.02182	0.007629	0.023956	0.00885	-0.022125	-0.014191	-0.044861	0.007019	-0.005341	-0.097351	0.10239	0.092163	0.083618	0.2301	-0.24994	0.07309	0.020142	-0.021362	0.09079	-0.00473	0.010529	0.17685	0	-0.021667
32.525	0.039978	0.12177	-0.032806	-0.013885	0.072784	0.15564	0.052185	-0.002747	-0.068817	0.009918	0.004425	0.025635	0.074768	-0.013885	-0.025024	0.020599	0.006104	-0.11673	0.23834	0.031433	0.10971	0.25681	-0.28564	0.04776	0.019989	-0.00885	0.22018	0.000763	0.068207	0.14236	-0.000458	-0.022888
32.526	-0.02533	0.12909	-0.051117	-0.014343	0.030212	0.20386	0.027924	-0.007935	-0.092773	0.01236	-0.059967	0.022888	0.020447	-0.026245	-0.014648	0.024719	0.048218	-0.14679	0.33218	-0.018158	0.13962	0.099945	-0.24002	0.036926	0.018768	-0.00061	0.57877	0.000763	0.035553	0.07843	-0.00412	-0.015564
32.527	-0.002289	0.15945	0.11993	-0.000458	-0.044098	0.24521	0.046539	0.012207	-0.11932	0.018158	-0.046082	0.027771	0.044403	-0.029755	-0.066986	0.022583	0.045776	-0.16357	0.37918	-0.09201	0.13275	0.063019	-0.22293	0.059814	0.0177	0.012665	0.36194	0.001678	-0.17075	0.027313	0.00061	-0.018921
32.528	-0.065613	0.19241	0.18249	-0.011597	-0.047913	0.081482	0.007019	0.021057	-0.097504	0.033112	-0.018616	0.034485	-0.028992	-0.038605	-0.046997	0.028839	0.045929	-0.16266	0.36865	-0.062561	0.11719	0.077209	-0.2652	0.0737	0.038452	0.014038	0.088806	0.000458	-0.27054	-0.076447	-0.001984	-0.010986
32.529	-0.039063	0.21973	0.095367	0.017853	-0.1535	-0.018158	-0.025177	-0.004425	-0.056763	0.015106	0.005188	0.036621	-0.088806	-0.005951	-0.002136	0.03067	0.026855	-0.17761	0.14313	-0.005798	0.10346	0.099487	-0.33218	0.076141	0.019379	0.010223	0.21057	0.000458	-0.31326	-0.24384	-0.005188	-0.013733
32.53	-0.028229	0.25787	0.074005	0.027313	-0.2153	-0.074921	-0.087585	-0.001068	-0.046844	0.013733	0.026703	0.038605	-0.068054	-0.00351	-0.001373	0.037689	-0.005341	-0.19257	-0.031281	0.001526	0.10162	0.12253	-0.27008	0.073547	0.018311	0.018005	0.23163	0.00351	-0.16876	-0.31784	-0.006409	-0.009155
